<svg xmlns="http://www.w3.org/2000/svg" viewBox="0 0 1920 1080" preserveAspectRatio="xMidYMid slice">
  <defs>
    <linearGradient id="tentGrad" x1="0%" y1="100%" x2="0%" y2="0%">
      <stop offset="0%" style="stop-color:#3d2518;stop-opacity:1" />
      <stop offset="100%" style="stop-color:#1a0f0a;stop-opacity:0.3" />
    </linearGradient>
  </defs>

  <!-- Bottom Left Tentacle Group -->
  <g opacity="0.9">
    <!-- Tentacle 1 - thick main tentacle curling up and right -->
    <path d="M-80,1150
             C-40,1050 20,980 60,900
             C100,820 80,750 120,680
             C160,610 200,580 180,500
             C160,420 200,380 240,320
             C280,260 260,200 300,150
             C320,120 300,80 340,50"
          fill="none" stroke="#3d2518" stroke-width="65" stroke-linecap="round"/>
    <path d="M-80,1150
             C-40,1050 20,980 60,900
             C100,820 80,750 120,680
             C160,610 200,580 180,500
             C160,420 200,380 240,320
             C280,260 260,200 300,150
             C320,120 300,80 340,50"
          fill="none" stroke="#4a2d1c" stroke-width="40" stroke-linecap="round"/>
    <path d="M-80,1150
             C-40,1050 20,980 60,900
             C100,820 80,750 120,680
             C160,610 200,580 180,500
             C160,420 200,380 240,320
             C280,260 260,200 300,150
             C320,120 300,80 340,50"
          fill="none" stroke="#5c3a24" stroke-width="18" stroke-linecap="round"/>

    <!-- Suckers for tentacle 1 -->
    <ellipse cx="45" cy="920" rx="12" ry="8" fill="#2a1810" opacity="0.7"/>
    <ellipse cx="75" cy="850" rx="11" ry="7" fill="#2a1810" opacity="0.7"/>
    <ellipse cx="95" cy="780" rx="10" ry="6" fill="#2a1810" opacity="0.6"/>
    <ellipse cx="110" cy="710" rx="9" ry="6" fill="#2a1810" opacity="0.6"/>
    <ellipse cx="140" cy="640" rx="8" ry="5" fill="#2a1810" opacity="0.5"/>
    <ellipse cx="175" cy="570" rx="7" ry="5" fill="#2a1810" opacity="0.5"/>
    <ellipse cx="175" cy="500" rx="6" ry="4" fill="#2a1810" opacity="0.4"/>
    <ellipse cx="200" cy="430" rx="5" ry="4" fill="#2a1810" opacity="0.4"/>
    <ellipse cx="230" cy="360" rx="5" ry="3" fill="#2a1810" opacity="0.3"/>
    <ellipse cx="260" cy="290" rx="4" ry="3" fill="#2a1810" opacity="0.3"/>

    <!-- Tentacle 2 - medium tentacle curling differently -->
    <path d="M20,1180
             C80,1100 150,1040 200,960
             C250,880 280,820 350,750
             C420,680 400,600 450,520
             C500,440 480,380 520,300"
          fill="none" stroke="#3d2518" stroke-width="45" stroke-linecap="round"/>
    <path d="M20,1180
             C80,1100 150,1040 200,960
             C250,880 280,820 350,750
             C420,680 400,600 450,520
             C500,440 480,380 520,300"
          fill="none" stroke="#4a2d1c" stroke-width="28" stroke-linecap="round"/>
    <path d="M20,1180
             C80,1100 150,1040 200,960
             C250,880 280,820 350,750
             C420,680 400,600 450,520
             C500,440 480,380 520,300"
          fill="none" stroke="#5c3a24" stroke-width="12" stroke-linecap="round"/>

    <!-- Suckers for tentacle 2 -->
    <ellipse cx="160" cy="1000" rx="10" ry="6" fill="#2a1810" opacity="0.6"/>
    <ellipse cx="230" cy="920" rx="9" ry="6" fill="#2a1810" opacity="0.6"/>
    <ellipse cx="300" cy="840" rx="8" ry="5" fill="#2a1810" opacity="0.5"/>
    <ellipse cx="370" cy="750" rx="7" ry="5" fill="#2a1810" opacity="0.5"/>
    <ellipse cx="420" cy="660" rx="6" ry="4" fill="#2a1810" opacity="0.4"/>
    <ellipse cx="460" cy="570" rx="5" ry="4" fill="#2a1810" opacity="0.4"/>

    <!-- Tentacle 3 - thinner, more curved -->
    <path d="M-40,1100
             C40,1060 100,1000 180,920
             C260,840 320,800 400,720
             C480,640 520,560 600,480
             C680,400 700,340 750,280"
          fill="none" stroke="#3d2518" stroke-width="30" stroke-linecap="round"/>
    <path d="M-40,1100
             C40,1060 100,1000 180,920
             C260,840 320,800 400,720
             C480,640 520,560 600,480
             C680,400 700,340 750,280"
          fill="none" stroke="#4a2d1c" stroke-width="18" stroke-linecap="round"/>

    <!-- Small curling tip tentacle -->
    <path d="M100,1120
             C160,1080 200,1020 260,940
             C320,860 300,780 340,700
             C380,620 350,560 380,500
             C400,460 370,420 390,380
             C405,350 385,320 395,290"
          fill="none" stroke="#3d2518" stroke-width="22" stroke-linecap="round"/>
    <path d="M100,1120
             C160,1080 200,1020 260,940
             C320,860 300,780 340,700
             C380,620 350,560 380,500
             C400,460 370,420 390,380
             C405,350 385,320 395,290"
          fill="none" stroke="#4a2d1c" stroke-width="12" stroke-linecap="round"/>
  </g>

  <!-- Bottom Right Tentacle Group -->
  <g opacity="0.9">
    <!-- Tentacle 1 - thick main tentacle curling up and left -->
    <path d="M2000,1150
             C1960,1050 1900,980 1860,900
             C1820,820 1840,750 1800,680
             C1760,610 1720,580 1740,500
             C1760,420 1720,380 1680,320
             C1640,260 1660,200 1620,150
             C1600,120 1620,80 1580,50"
          fill="none" stroke="#3d2518" stroke-width="65" stroke-linecap="round"/>
    <path d="M2000,1150
             C1960,1050 1900,980 1860,900
             C1820,820 1840,750 1800,680
             C1760,610 1720,580 1740,500
             C1760,420 1720,380 1680,320
             C1640,260 1660,200 1620,150
             C1600,120 1620,80 1580,50"
          fill="none" stroke="#4a2d1c" stroke-width="40" stroke-linecap="round"/>
    <path d="M2000,1150
             C1960,1050 1900,980 1860,900
             C1820,820 1840,750 1800,680
             C1760,610 1720,580 1740,500
             C1760,420 1720,380 1680,320
             C1640,260 1660,200 1620,150
             C1600,120 1620,80 1580,50"
          fill="none" stroke="#5c3a24" stroke-width="18" stroke-linecap="round"/>

    <!-- Suckers for right tentacle 1 -->
    <ellipse cx="1875" cy="920" rx="12" ry="8" fill="#2a1810" opacity="0.7"/>
    <ellipse cx="1845" cy="850" rx="11" ry="7" fill="#2a1810" opacity="0.7"/>
    <ellipse cx="1825" cy="780" rx="10" ry="6" fill="#2a1810" opacity="0.6"/>
    <ellipse cx="1810" cy="710" rx="9" ry="6" fill="#2a1810" opacity="0.6"/>
    <ellipse cx="1780" cy="640" rx="8" ry="5" fill="#2a1810" opacity="0.5"/>
    <ellipse cx="1745" cy="570" rx="7" ry="5" fill="#2a1810" opacity="0.5"/>
    <ellipse cx="1745" cy="500" rx="6" ry="4" fill="#2a1810" opacity="0.4"/>
    <ellipse cx="1720" cy="430" rx="5" ry="4" fill="#2a1810" opacity="0.4"/>
    <ellipse cx="1690" cy="360" rx="5" ry="3" fill="#2a1810" opacity="0.3"/>

    <!-- Tentacle 2 - medium -->
    <path d="M1900,1180
             C1840,1100 1770,1040 1720,960
             C1670,880 1640,820 1570,750
             C1500,680 1520,600 1470,520
             C1420,440 1440,380 1400,300"
          fill="none" stroke="#3d2518" stroke-width="45" stroke-linecap="round"/>
    <path d="M1900,1180
             C1840,1100 1770,1040 1720,960
             C1670,880 1640,820 1570,750
             C1500,680 1520,600 1470,520
             C1420,440 1440,380 1400,300"
          fill="none" stroke="#4a2d1c" stroke-width="28" stroke-linecap="round"/>
    <path d="M1900,1180
             C1840,1100 1770,1040 1720,960
             C1670,880 1640,820 1570,750
             C1500,680 1520,600 1470,520
             C1420,440 1440,380 1400,300"
          fill="none" stroke="#5c3a24" stroke-width="12" stroke-linecap="round"/>

    <!-- Suckers for right tentacle 2 -->
    <ellipse cx="1760" cy="1000" rx="10" ry="6" fill="#2a1810" opacity="0.6"/>
    <ellipse cx="1690" cy="920" rx="9" ry="6" fill="#2a1810" opacity="0.6"/>
    <ellipse cx="1620" cy="840" rx="8" ry="5" fill="#2a1810" opacity="0.5"/>
    <ellipse cx="1550" cy="750" rx="7" ry="5" fill="#2a1810" opacity="0.5"/>
    <ellipse cx="1500" cy="660" rx="6" ry="4" fill="#2a1810" opacity="0.4"/>

    <!-- Tentacle 3 - reaching across -->
    <path d="M1960,1100
             C1880,1060 1820,1000 1740,920
             C1660,840 1600,800 1520,720
             C1440,640 1400,560 1320,480
             C1240,400 1220,340 1170,280"
          fill="none" stroke="#3d2518" stroke-width="30" stroke-linecap="round"/>
    <path d="M1960,1100
             C1880,1060 1820,1000 1740,920
             C1660,840 1600,800 1520,720
             C1440,640 1400,560 1320,480
             C1240,400 1220,340 1170,280"
          fill="none" stroke="#4a2d1c" stroke-width="18" stroke-linecap="round"/>

    <!-- Small curling tentacle -->
    <path d="M1820,1120
             C1760,1080 1720,1020 1660,940
             C1600,860 1620,780 1580,700
             C1540,620 1570,560 1540,500
             C1520,460 1550,420 1530,380"
          fill="none" stroke="#3d2518" stroke-width="22" stroke-linecap="round"/>
    <path d="M1820,1120
             C1760,1080 1720,1020 1660,940
             C1600,860 1620,780 1580,700
             C1540,620 1570,560 1540,500
             C1520,460 1550,420 1530,380"
          fill="none" stroke="#4a2d1c" stroke-width="12" stroke-linecap="round"/>
  </g>

  <!-- Top corner tentacles - subtle, reaching down -->
  <g opacity="0.5">
    <!-- Top left -->
    <path d="M-30,-50
             C50,80 80,150 60,250
             C40,350 80,400 60,480
             C50,530 80,580 70,630"
          fill="none" stroke="#2a1810" stroke-width="35" stroke-linecap="round"/>
    <path d="M-30,-50
             C50,80 80,150 60,250
             C40,350 80,400 60,480
             C50,530 80,580 70,630"
          fill="none" stroke="#3d2518" stroke-width="20" stroke-linecap="round"/>

    <path d="M80,-30
             C120,60 160,120 140,200
             C120,280 160,340 150,400"
          fill="none" stroke="#2a1810" stroke-width="25" stroke-linecap="round"/>
    <path d="M80,-30
             C120,60 160,120 140,200
             C120,280 160,340 150,400"
          fill="none" stroke="#3d2518" stroke-width="14" stroke-linecap="round"/>

    <!-- Top right -->
    <path d="M1950,-50
             C1870,80 1840,150 1860,250
             C1880,350 1840,400 1860,480
             C1870,530 1840,580 1850,630"
          fill="none" stroke="#2a1810" stroke-width="35" stroke-linecap="round"/>
    <path d="M1950,-50
             C1870,80 1840,150 1860,250
             C1880,350 1840,400 1860,480
             C1870,530 1840,580 1850,630"
          fill="none" stroke="#3d2518" stroke-width="20" stroke-linecap="round"/>

    <path d="M1840,-30
             C1800,60 1760,120 1780,200
             C1800,280 1760,340 1770,400"
          fill="none" stroke="#2a1810" stroke-width="25" stroke-linecap="round"/>
    <path d="M1840,-30
             C1800,60 1760,120 1780,200
             C1800,280 1760,340 1770,400"
          fill="none" stroke="#3d2518" stroke-width="14" stroke-linecap="round"/>
  </g>

  <!-- Ambient deep sea darkness at bottom -->
  <rect x="0" y="900" width="1920" height="180" fill="url(#tentGrad)" opacity="0.5"/>
</svg>